<svg xmlns="http://www.w3.org/2000/svg" viewBox="0 0 32 32" fill="none">
  <!-- Background circle -->
  <circle cx="16" cy="16" r="14" fill="#1e40af"/>
  
  <!-- Speech bubble -->
  <path d="M8 10 C8 9 9 8 10 8 L22 8 C23 8 24 9 24 10 L24 16 C24 17 23 18 22 18 L12 18 L9 21 L9 18 C8 18 8 17 8 16 Z" fill="white"/>
  
  <!-- Conversation dots -->
  <circle cx="13" cy="13" r="1" fill="#1e40af"/>
  <circle cx="16" cy="13" r="1" fill="#1e40af"/>
  <circle cx="19" cy="13" r="1" fill="#1e40af"/>
  
  <!-- Microphone -->
  <rect x="15" y="22" width="2" height="1.5" fill="white"/>
  <rect x="14.5" y="20" width="3" height="3" rx="1.5" fill="none" stroke="white" stroke-width="1"/>
  <path d="M12 23 Q12 25 16 25 Q20 25 20 23" stroke="white" stroke-width="1" fill="none"/>
</svg>
